<svg xmlns="http://www.w3.org/2000/svg" style="display: none;">
  <symbol id="beaker" viewBox="214.7 0 182.6 792">
    <circle cx="344.8" cy="20.2" r="20.2"/>
    <circle cx="344.8" cy="92.9" r="20.2"/>
    <circle cx="320.5" cy="169.7" r="24.2"/>
    <circle cx="243" cy="141.4" r="24.2"/>
    <circle cx="284.2" cy="56.6" r="36.4"/>
    <path d="M397.3 768.5l-11.3-343.5v-178.5l9.7-20.2h-29.9l-4 13.7 2.4 189.9 9.7 316.8c1.6 14.5-19.4 12.9-34.8 12.9h-33.9s-38.8.8-46.1 0c-14.5-.8-18.6 1.6-17-29.1 1.6-25.2.8-95.5 5.7-301.5l-2.4-189.9-3.2-12.9h-27.5l9.7 20.2v178.6s-3.2 323.3-3.2 343.5c0 26.7 22.6 23.4 22.6 23.4h128.5c7.2 0 25 0 25-23.4zM259.9 473.5h93.8l-1.6-79.9h-92.2zM356.1 611.7l-2.4-132.6v5.7h-93.8l-.8 126.9zM352.1 382.3l-1.7-99.4h-89.7l-.8 99.4zM259.1 623l-.8 123.6h101l-2.4-123.6z"/>
  </symbol>
  <symbol id="fish" viewBox="0 26 100 48">
    <path d="M98.5,47.5C96.5,45.5,81,35,62,35c-2.1,0-4.2,0.1-6.2,0.3L39,26c0,4.5,1.3,9,2.4,12.1C31.7,40.7,23.3,44,16,44L0,34
    c0,8,4,16,4,16s-4,8-4,16l16-10c7.3,0,15.7,3.3,25.4,5.9C40.3,65,39,69.5,39,74l16.8-9.3c2,0.2,4.1,0.3,6.2,0.3
    c19,0,34.5-10.5,36.5-12.5S100.5,49.5,98.5,47.5z M85.5,50c-1.4,0-2.5-1.1-2.5-2.5s1.1-2.5,2.5-2.5s2.5,1.1,2.5,2.5
    C88,48.9,86.9,50,85.5,50z"/>
  </symbol>
   <symbol id="hamburger" viewBox="0 0 18 12">
    <title>hamburger</title><g id="Layer_2" data-name="Layer 2"><g id="Layer_1-2" data-name="Layer 1"><path d="M0,0H18V2H0ZM0,7V5H18V7Zm0,5V10H18v2Z"/></g></g>
  </symbol>
  <symbol id="cross" viewBox="0 0 14.12 14.12">
    <title>cross</title><g id="Layer_2" data-name="Layer 2"><g id="Layer_1_copy" data-name="Layer 1 copy"><path d="M1.39,14.12,0,12.73,12.73,0l1.39,1.39Z"/><path d="M0,1.39,1.39,0,14.12,12.73l-1.39,1.39Z"/></g></g>
  </symbol>
  <symbol id="search" viewBox="0 0 22 22">
    <title>search</title><g id="Layer_2" data-name="Layer 2"><g id="Layer_1-2" data-name="Layer 1"><path class="cls-1" d="M9,0a8.78,8.78,0,0,1,3.5.71A8.85,8.85,0,0,1,17.29,5.5,8.78,8.78,0,0,1,18,9a8.91,8.91,0,0,1-2,5.62l5.68,5.67a1,1,0,0,1-1.42,1.42L14.62,16A9,9,0,0,1,5.5,17.28,8.85,8.85,0,0,1,.71,12.5a8.9,8.9,0,0,1,0-7A8.85,8.85,0,0,1,5.5.71,8.78,8.78,0,0,1,9,0ZM9,2a6.84,6.84,0,0,0-2.72.56A6.88,6.88,0,0,0,2.56,6.28a6.94,6.94,0,0,0,0,5.44,6.88,6.88,0,0,0,3.73,3.73,6.94,6.94,0,0,0,5.44,0,6.88,6.88,0,0,0,3.73-3.73,6.94,6.94,0,0,0,0-5.44,6.88,6.88,0,0,0-3.73-3.73A6.84,6.84,0,0,0,9,2Z"/></g></g>
  </symbol>
  <symbol id="linkedin" viewBox="0 0 24 24">
      <path d="M19 0h-14c-2.761 0-5 2.239-5 5v14c0 2.761 2.239 5 5 5h14c2.762 0 5-2.239 5-5v-14c0-2.761-2.238-5-5-5zm-11 19h-3v-11h3v11zm-1.5-12.268c-.966 0-1.75-.79-1.75-1.764s.784-1.764 1.75-1.764 1.75.79 1.75 1.764-.783 1.764-1.75 1.764zm13.5 12.268h-3v-5.604c0-3.368-4-3.113-4 0v5.604h-3v-11h3v1.765c1.396-2.586 7-2.777 7 2.476v6.759z"/>
  </symbol>
  <symbol id="github" viewBox="0 0 24 24">
    <path d="M12 0c-6.626 0-12 5.373-12 12 0 5.302 3.438 9.8 8.207 11.387.599.111.793-.261.793-.577v-2.234c-3.338.726-4.033-1.416-4.033-1.416-.546-1.387-1.333-1.756-1.333-1.756-1.089-.745.083-.729.083-.729 1.205.084 1.839 1.237 1.839 1.237 1.07 1.834 2.807 1.304 3.492.997.107-.775.418-1.305.762-1.604-2.665-.305-5.467-1.334-5.467-5.931 0-1.311.469-2.381 1.236-3.221-.124-.303-.535-1.524.117-3.176 0 0 1.008-.322 3.301 1.23.957-.266 1.983-.399 3.003-.404 1.02.005 2.047.138 3.006.404 2.291-1.552 3.297-1.23 3.297-1.23.653 1.653.242 2.874.118 3.176.77.84 1.235 1.911 1.235 3.221 0 4.609-2.807 5.624-5.479 5.921.43.372.823 1.102.823 2.222v3.293c0 .319.192.694.801.576 4.765-1.589 8.199-6.086 8.199-11.386 0-6.627-5.373-12-12-12z"/>
  </symbol>
  <symbol id="youtube" viewBox="0 0 24 24">
    <path d="M19.615 3.184c-3.604-.246-11.631-.245-15.23 0-3.897.266-4.356 2.62-4.385 8.816.029 6.185.484 8.549 4.385 8.816 3.6.245 11.626.246 15.23 0 3.897-.266 4.356-2.62 4.385-8.816-.029-6.185-.484-8.549-4.385-8.816zm-10.615 12.816v-8l8 3.993-8 4.007z"/>
  </symbol>
  <symbol id="jekyll" viewBox="0 0 16 16" fill-rule="evenodd" clip-rule="evenodd" stroke-linejoin="round" stroke-miterlimit="1.414">
    <path d="M5.382 16c-.232 0-.46-.042-.68-.126-.917-.35-1.402-1.346-1.15-2.268l-.01-.005.06-.15L8.266 1.34c.07-.18.037-.607.004-.845-.01-.056-.01-.107.005-.16L8.28.32l.004-.01V.305L8.29.293C8.362.098 8.59 0 8.963 0c.448 0 1.067.14 1.7.382.532.205 1.016.46 1.356.717.4.3.56.57.47.8l-.02.03-.01.01c-.03.04-.06.08-.1.11-.21.18-.51.49-.56.63L7.09 14.96l-.01-.004c-.33.632-.972 1.037-1.695 1.04H5.38zm-1.458-2.478l-.014.033c-.298.8.108 1.704.91 2.012.18.07.367.102.558.102.647 0 1.22-.39 1.458-1l.018-.04 4.64-12.06c.097-.26.56-.68.652-.76l.01-.01c.008-.01.013-.01.013-.02 0-.04-.04-.18-.37-.43-.32-.24-.77-.48-1.27-.67C9.95.46 9.35.32 8.95.32c-.26 0-.35.054-.363.084V.43c.01.07.098.69-.023 1.01l-4.64 12.08zM9.89 5.85s-.642.74-1.228 1.006c-.587.266-1.02.196-1.547.504-.526.307-.792.735-.792.735L4.18 13.67c-.232.63.112 1.366.75 1.613.64.247 1.36-.08 1.608-.704L9.89 5.85zm-3.287 6.657c.07-.028.15 0 .177.07.028.07 0 .148-.07.176-.07.028-.15 0-.177-.07-.028-.065 0-.144.07-.176zm-.676-1.202c-.102.046-.223 0-.265-.103-.047-.102 0-.223.102-.265.103-.047.224 0 .266.102.05.1.005.21-.103.26zm.19-.73c-.082-.192 0-.416.192-.505.19-.083.41 0 .5.19.08.192 0 .416-.19.504-.2.084-.42 0-.51-.19zM7.735 9.07c.102-.05.223 0 .265.1.047.103 0 .224-.102.266-.103.047-.224 0-.266-.103-.05-.102 0-.223.103-.265zm-.862-.92c.07-.028.15 0 .177.07.028.07 0 .15-.07.177-.07.028-.15 0-.177-.07-.028-.07.005-.15.07-.177zM9.12.76c.066-.174.662-.108 1.33.15.666.256 1.153.606 1.086.78-.068.176-.664.11-1.33-.146C9.536 1.287 9.05.937 9.118.76z"/>
  </symbol>
  <symbol id="404" viewBox="0 0 60 60">
    <g>
      <path style="fill:#231F20;" d="M57,0H3C1.346,0,0,1.346,0,3v56c0,0.552,0.448,1,1,1h58c0.552,0,1-0.448,1-1V3
        C60,1.346,58.654,0,57,0z M3,2h54c0.551,0,1,0.449,1,1v5H2V3C2,2.449,2.449,2,3,2z M19,53v5h-8v-5H19z M21,53h8v5h-8V53z M31,53h8
        v5h-8V53z M41,53h8v5h-8V53z M2,51V17h56v34H2z M2,15v-5h56v5H2z M2,53h7v5H2V53z M51,58v-5h7v5H51z"/>
      <rect x="5" y="4" style="fill:#231F20;" width="4" height="2"/>
      <rect x="12" y="4" style="fill:#231F20;" width="4" height="2"/>
      <path style="fill:#231F20;" d="M16,24h-2v13H8V24H6v14c0,0.552,0.448,1,1,1h7v6h2v-6h3v-2h-3V24z"/>
      <path style="fill:#231F20;" d="M54,37h-3V24h-2v13h-6V24h-2v14c0,0.552,0.448,1,1,1h7v6h2v-6h3V37z"/>
      <path style="fill:#231F20;" d="M30,24c-3.86,0-7,3.14-7,7v7c0,3.86,3.14,7,7,7s7-3.14,7-7v-7C37,27.14,33.86,24,30,24z M35,38
        c0,2.757-2.243,5-5,5s-5-2.243-5-5v-7c0-2.757,2.243-5,5-5s5,2.243,5,5V38z"/>
    </g>
    <g></g>
    <g></g>
    <g></g>
    <g></g>
    <g></g>
    <g></g>
    <g></g>
    <g></g>
    <g></g>
    <g></g>
    <g></g>
    <g></g>
    <g></g>
    <g></g>
    <g></g>
  </symbol>
  <symbol id="wrench" viewBox="0 0 8 8">
    <path d="M5.5 0c-1.38 0-2.5 1.12-2.5 2.5 0 .32.08.62.19.91l-2.91 2.88c-.39.39-.39 1.05 0 1.44.2.2.46.28.72.28.26 0 .52-.09.72-.28l2.88-2.91c.28.11.58.19.91.19 1.38 0 2.5-1.12 2.5-2.5 0-.16 0-.32-.03-.47l-.97.97h-2v-2l.97-.97c-.15-.03-.31-.03-.47-.03zm-4.5 6.5c.28 0 .5.22.5.5s-.22.5-.5.5-.5-.22-.5-.5.22-.5.5-.5z"
    />
  </symbol>
  <symbol id="warning" viewBox="0 0 8 8">
    <path d="M3.09 0c-.06 0-.1.04-.13.09l-2.94 6.81c-.02.05-.03.13-.03.19v.81c0 .05.04.09.09.09h6.81c.05 0 .09-.04.09-.09v-.81c0-.05-.01-.14-.03-.19l-2.94-6.81c-.02-.05-.07-.09-.13-.09h-.81zm-.09 3h1v2h-1v-2zm0 3h1v1h-1v-1z" />
  </symbol>
  <symbol id="chevron-top" viewBox="0 0 8 8">
    <path d="M4 0l-4 4 1.5 1.5 2.5-2.5 2.5 2.5 1.5-1.5-4-4z" transform="translate(0 1)" />
  </symbol>
  <symbol id="de" viewBox="0 0 640 480">
    <path fill="#ffce00" d="M0 341.338h512.005v170.67H0z"/>
    <path d="M0 0h512.005v170.67H0z"/>
    <path fill="#d00" d="M0 170.67h512.005v170.668H0z"/>
  </symbol>
  <symbol id="ko" viewBox="0 0 640 480">
    <defs>
      <clipPath id="a">
        <path fill-opacity=".67" d="M-95.808-.44h682.67v512h-682.67z"/>
      </clipPath>
    </defs>
    <g fill-rule="evenodd" clip-path="url(#a)" transform="translate(89.82 .412) scale(.9375)">
      <path fill="#fff" d="M610.61 511.56h-730.17v-512h730.17z"/>
      <path d="M251.871 256.021c0 62.137-50.372 112.508-112.507 112.508-62.137 0-112.507-50.372-112.507-112.508 0-62.137 50.371-112.507 112.507-112.507 62.137 0 112.507 50.372 112.507 112.507z" fill="#fff"/>
      <path d="M393.011 262.55c0 81.079-65.034 146.803-145.261 146.803S102.488 343.63 102.488 262.55s65.034-146.804 145.262-146.804S393.01 181.471 393.01 262.55z" fill="#c70000"/>
      <path d="M-49.417 126.44l83.66-96.77 19.821 17.135-83.66 96.771zM-22.018 150.127l83.66-96.77 19.82 17.135-83.66 96.77z"/>
      <path d="M-49.417 126.44l83.66-96.77 19.821 17.135-83.66 96.771z"/>
      <path d="M-49.417 126.44l83.66-96.77 19.821 17.135-83.66 96.771zM5.967 174.32l83.66-96.77 19.82 17.136-83.66 96.77z"/>
      <path d="M-49.417 126.44l83.66-96.77 19.821 17.135-83.66 96.771z"/>
      <path d="M-49.417 126.44l83.66-96.77 19.821 17.135-83.66 96.771zM459.413 29.638l83.002 97.335-19.937 17-83.002-97.334zM403.707 77.141l83.002 97.335-19.936 17-83.002-97.334z"/>
      <path d="M417.55 133.19l78.602-67.814 14.641 16.953-83.996 75.519-9.247-24.659z" fill="#fff"/>
      <path d="M514.228 372.013l-80.416 95.829-19.716-16.4 80.417-95.828zM431.853 53.14l83.002 97.334-19.936 17.001-83.002-97.334zM541.475 394.676l-80.417 95.829-19.715-16.399 80.417-95.829zM486.39 348.857l-80.417 95.83-19.715-16.4 80.416-95.829z"/>
      <path d="M104.6 236.68c4.592 36.974 11.297 78.175 68.199 82.455 21.328 1.278 62.817-5.074 77.061-63.19 18.688-55.829 74.975-71.88 113.28-41.613 21.718 14.166 27.727 36.666 29.283 53.557-1.739 54.243-32.874 101.2-72.823 122.14-45.93 27.3-109.56 27.87-165.3-13.49-25.12-23.57-60.219-67.02-49.7-139.86z" fill="#3d5897"/>
      <path d="M435.91 370.59l78.734 67.661-14.591 16.997-87.156-71.851 23.013-12.807z" fill="#fff"/>
      <path d="M-1.887 357.197l83.002 97.335-19.937 17-83.002-97.334z"/>
      <path d="M-16.188 437.25l78.602-67.814 14.641 16.953-83.996 75.519-9.247-24.659z" fill="#fff"/>
      <path d="M25.672 333.696l83.003 97.334-19.937 17-83.002-97.334zM-30.033 381.199l83.002 97.334-19.936 17L-49.97 398.2z"/>
    </g>
  </symbol>
  <symbol id="en" viewBox="0 0 640 480">
    <g stroke-width="1pt">
      <path fill="#006" d="M0 0h640v480H0z"/>
      <path d="M0 0v27.95L307.037 250h38.647v-27.95L38.647 0H0zm345.684 0v27.95L38.647 250H0v-27.95L307.037 0h38.647z" fill="#fff"/>
      <path d="M144.035 0v250h57.614V0h-57.615zM0 83.333v83.333h345.684V83.333H0z" fill="#fff"/>
      <path d="M0 100v50h345.684v-50H0zM155.558 0v250h34.568V0h-34.568zM0 250l115.228-83.334h25.765L25.765 250H0zM0 0l115.228 83.333H89.463L0 18.633V0zm204.69 83.333L319.92 0h25.764L230.456 83.333H204.69zM345.685 250l-115.228-83.334h25.765l89.464 64.7V250z" fill="#c00"/>
      <path d="M299.762 392.523l-43.653 3.795 6.013 43.406-30.187-31.764-30.186 31.764 6.014-43.406-43.653-3.795 37.68-22.364-24.244-36.495 40.97 15.514 13.42-41.713 13.42 41.712 40.97-15.515-24.242 36.494m224.444 62.372l-10.537-15.854 17.81 6.742 5.824-18.125 5.825 18.126 17.807-6.742-10.537 15.854 16.37 9.718-18.965 1.65 2.616 18.85-13.116-13.793-13.117 13.794 2.616-18.85-18.964-1.65m16.368-291.815l-10.537-15.856 17.81 6.742 5.824-18.122 5.825 18.12 17.807-6.74-10.537 15.855 16.37 9.717-18.965 1.65 2.616 18.85-13.116-13.793-13.117 13.794 2.616-18.85-18.964-1.65m-89.418 104.883l-10.537-15.853 17.808 6.742 5.825-18.125 5.825 18.125 17.808-6.742-10.536 15.853 16.37 9.72-18.965 1.65 2.615 18.85-13.117-13.795-13.117 13.795 2.617-18.85-18.964-1.65m216.212-37.929l-10.558-15.854 17.822 6.742 5.782-18.125 5.854 18.125 17.772-6.742-10.508 15.854 16.362 9.718-18.97 1.65 2.608 18.85-13.118-13.793-13.117 13.793 2.61-18.85-18.936-1.65m-22.251 73.394l-10.367 6.425 2.914-11.84-9.316-7.863 12.165-.896 4.605-11.29 4.606 11.29 12.165.897-9.317 7.863 2.912 11.84" fill-rule="evenodd" fill="#fff"/>
    </g>
  </symbol>
  <symbol id="tablet" viewBox="0 0 8 8">
    <path d="M.34 0c-.18 0-.34.16-.34.34v7.31c0 .18.16.34.34.34h6.31c.18 0 .34-.16.34-.34v-7.31c0-.18-.16-.34-.34-.34h-6.31zm.66 1h5v5h-5v-5zm2.5 5.5c.38 0 .63.42.44.75s-.68.33-.88 0c-.19-.33.05-.75.44-.75z" />
  </symbol>

  <symbol id="v-line" viewBox="0 0 1 10" preserveAspectRatio="xMidYMid meet">
    <g transform="translate(0.000000,10.000000) scale(0.100000,-0.100000)"
    fill="#000000" stroke="none">
   </g>
  </symbol>
</svg>
